<?xml version="1.0" encoding="UTF-8" standalone="no"?>
<svg width="41px" height="41px" viewBox="0 0 41 41" version="1.1" xmlns="http://www.w3.org/2000/svg" xmlns:xlink="http://www.w3.org/1999/xlink" xmlns:sketch="http://www.bohemiancoding.com/sketch/ns">
    <!-- Generator: Sketch 3.4 (15575) - http://www.bohemiancoding.com/sketch -->
    <title>Imported Layers</title>
    <desc>Created with Sketch.</desc>
    <defs></defs>
    <g id="Page-1---1510_30" stroke="none" stroke-width="1" fill="none" fill-rule="evenodd" sketch:type="MSPage">
        <g id="1510_30_NuweEcosystem_Homepage" sketch:type="MSArtboardGroup" transform="translate(-630.000000, -545.000000)" fill="#FFFFFF">
            <g id="Panel-1" sketch:type="MSLayerGroup" transform="translate(0.000000, 90.000000)">
                <g id="Imported-Layers" transform="translate(630.000000, 455.000000)" sketch:type="MSShapeGroup">
                    <path d="M20.1821804,26.194841 C20.2704636,26.2740579 20.3843185,26.3164955 20.4987823,26.3164955 C20.6132461,26.3164955 20.727101,26.2763212 20.8153842,26.194841 L28.8680318,18.7105468 C29.0439894,18.5470206 29.0439894,18.2861708 28.8680318,18.1226446 C28.6920742,17.9591185 28.408959,17.9591185 28.2354368,18.1226446 L20.4987823,25.3127049 L12.7645632,18.1226446 C12.5886056,17.9591185 12.3079258,17.9591185 12.1319682,18.1226446 C11.9560106,18.2861708 11.9560106,18.5470206 12.1319682,18.7105468 L20.1821804,26.194841 Z" id="Fill-1"></path>
                    <path d="M20.3700455,40.740091 C31.602994,40.740091 40.740091,31.602994 40.740091,20.3700455 C40.740091,9.13709709 31.602994,0 20.3700455,0 C9.13709709,0 0,9.13709709 0,20.3700455 C0,31.602994 9.13709709,40.740091 20.3700455,40.740091 L20.3700455,40.740091 Z M20.3700455,0.831211024 C31.1429704,0.831211024 39.90888,9.59712061 39.90888,20.3700455 C39.90888,31.1429704 31.1429704,39.90888 20.3700455,39.90888 C9.59712061,39.90888 0.831211024,31.1429704 0.831211024,20.3700455 C0.831211024,9.59712061 9.59712061,0.831211024 20.3700455,0.831211024 L20.3700455,0.831211024 Z" id="Fill-2"></path>
                </g>
            </g>
        </g>
    </g>
</svg>